<?xml version="1.0" encoding="UTF-8" standalone="no"?>
<!-- Created with Inkscape (http://www.inkscape.org/) -->

<svg
   xmlns:dc="http://purl.org/dc/elements/1.1/"
   xmlns:cc="http://creativecommons.org/ns#"
   xmlns:rdf="http://www.w3.org/1999/02/22-rdf-syntax-ns#"
   xmlns:svg="http://www.w3.org/2000/svg"
   xmlns="http://www.w3.org/2000/svg"
   xmlns:sodipodi="http://sodipodi.sourceforge.net/DTD/sodipodi-0.dtd"
   xmlns:inkscape="http://www.inkscape.org/namespaces/inkscape"
   version="1.1"
   id="svg69"
   width="512"
   height="512"
   viewBox="0 0 512 512"
   sodipodi:docname="logo.svg"
   inkscape:version="0.92.5 (2060ec1f9f, 2020-04-08)">
  <metadata
     id="metadata1074">
    <rdf:RDF>
      <cc:Work
         rdf:about="">
        <dc:format>image/svg+xml</dc:format>
        <dc:type
           rdf:resource="http://purl.org/dc/dcmitype/StillImage" />
        <dc:title></dc:title>
      </cc:Work>
    </rdf:RDF>
  </metadata>
  <defs
     id="defs73" />
  <sodipodi:namedview
     id="namedview71"
     pagecolor="#ffffff"
     bordercolor="#000000"
     borderopacity="0.25"
     inkscape:showpageshadow="2"
     inkscape:pageopacity="0.0"
     inkscape:pagecheckerboard="0"
     inkscape:deskcolor="#d1d1d1"
     showgrid="false"
     inkscape:zoom="1.4142136"
     inkscape:cx="255.23147"
     inkscape:cy="215.15142"
     inkscape:window-width="1920"
     inkscape:window-height="1004"
     inkscape:window-x="0"
     inkscape:window-y="0"
     inkscape:window-maximized="1"
     inkscape:current-layer="g75" />
  <g
     inkscape:groupmode="layer"
     inkscape:label="Image"
     id="g75">
    <path
       style="fill:#ffffff;fill-opacity:1;stroke:none"
       d="M 318.0625 38.035156 C 316.60404 38.044589 314.91648 38.277015 312.88281 38.851562 C 307.94315 41.372844 306.27379 44.912152 304.46094 48.40625 C 286.12876 93.924482 268.003 139.4427 250.1543 184.96094 L 252.66016 178.46094 L 252.57422 178.55469 L 252.66211 178.35938 L 132.25781 308.51367 L 132.48828 311.3457 L 132.50391 311.3457 L 132.40625 311.45508 L 196.49805 324.13477 L 199.77344 315.64062 C 182.25263 361.94211 165.10118 408.24344 148.43164 454.54492 C 147.63111 459.24834 148.03346 464.54438 151.87891 471.5332 C 156.52073 478.00323 161.57852 479.83231 166.8125 479.70898 C 170.96915 479.84433 174.81641 480.79488 180.75391 476.26367 C 182.74072 474.40435 184.4474 471.8965 185.84375 468.66211 C 186.70018 466.89536 187.77323 464.01071 188.55078 461.48828 C 203.32749 412.32594 222.858 368.92054 241.33789 309.49219 C 242.73753 307.97167 243.27373 308.15963 243.92773 308.11719 C 245.16741 308.34406 246.06458 308.73277 246.86328 309.16797 L 246.86914 309.15234 C 249.19598 310.08613 251.50568 311.04261 253.53516 312.36719 C 254.86364 313.77414 253.99558 315.65926 253.41797 317.07227 C 243.91318 333.82018 234.09728 349.18409 225.49609 367.66211 C 224.26159 372.67753 223.55994 376.13816 225.95508 383.20117 C 227.70798 386.88194 232.77399 391.37164 237.26562 392.10547 C 240.03563 392.32212 242.66598 392.24677 245.03906 391.62695 C 250.67199 387.84669 255.27294 384.40461 260.58594 378.30664 L 301.41797 308.71875 C 302.52491 306.82084 303.30794 304.27762 302.83203 299.22266 C 302.34183 296.15373 302.23762 293.87292 297.78906 288.06445 C 295.99767 285.7357 293.44782 283.40688 291.12891 281.07812 C 290.22475 280.36417 290.26222 279.68715 290.32422 279.00977 C 293.57559 273.80926 296.98809 267.44567 300.32227 261.65234 C 301.48147 260.23653 302.58861 257.45481 303.38086 257.50781 C 303.96241 258.07919 304.19906 258.66718 304.16406 259.26758 C 302.17049 273.20507 303.01105 270.43646 302.60938 274.98438 C 302.79699 280.12599 301.95747 285.83093 305.70117 289.01758 C 310.5883 293.44143 316.02682 294.87537 322.4375 291.03906 C 339.01394 276.66439 351.80038 265.1841 375.30664 239.81836 C 378.04054 237.78546 378.4713 228.88951 373.39258 223.95117 C 370.40567 220.47944 361.13874 220.94699 356.22656 224.86719 L 329.73828 249.38281 C 328.61945 250.15038 327.86052 249.99714 327.6582 248.42383 C 327.3317 236.05098 327.87191 223.78081 329.60547 211.15039 C 330.15622 208.44903 330.97897 206.64987 329.90625 201.96289 C 329.05973 197.751 325.79337 195.51064 322.7832 194.84375 C 319.79067 194.40268 318.5529 194.14201 315.74805 194.07031 C 302.34439 191.54421 299.39007 188.55918 291.2168 185.80273 L 291.24609 185.72266 C 288.01358 183.99819 284.78134 183.64784 281.54883 182.66211 C 281.64713 181.90708 281.19671 183.65072 281.49023 176.99414 C 283.50046 173.37586 284.92927 170.18642 286.74414 169.75781 L 286.85742 169.47266 C 290.80598 177.83036 297.91346 183.21825 304.97461 186.10156 L 304.97656 186.0957 C 311.56984 187.74766 335.17156 194.06034 348.6543 169.16406 C 359.72818 141.13389 341.80956 125.01692 327.01562 121.02148 L 325.57422 125.27148 L 327.01562 121.01758 C 319.20673 119.28828 311.91243 119.84751 305.39258 122.51367 L 305.41602 122.45117 C 304.58968 122.16968 303.65629 122.30067 303.52344 119.35156 L 328.94922 50.748047 C 329.16209 47.11131 329.36734 43.474244 325.58984 39.943359 C 323.36793 39.072547 321.2711 38.014404 318.0625 38.035156 z "
       id="path403" />
  </g>
  <g
     inkscape:groupmode="layer"
     id="layer1"
     inkscape:label="Image 1" />
</svg>
